<svg width="24" height="44" viewBox="0 0 24 44" fill="none" xmlns="http://www.w3.org/2000/svg">
<path fill-rule="evenodd" clip-rule="evenodd" d="M1.17491 42.4967C2.02172 43.3352 3.39124 43.3352 4.23595 42.4967L22.1401 24.73C22.5409 24.3384 22.86 23.867 23.0781 23.3446C23.2961 22.8222 23.4086 22.2596 23.4086 21.6911C23.4086 21.1226 23.2961 20.5601 23.0781 20.0377C22.86 19.5152 22.5409 19.0439 22.1401 18.6523L4.10632 0.754412C3.69704 0.354419 3.15503 0.129596 2.59039 0.125603C2.02574 0.12161 1.48078 0.338746 1.06619 0.732913C0.860807 0.927564 0.696474 1.1635 0.583366 1.4261C0.470259 1.6887 0.410786 1.97239 0.40863 2.25958C0.406474 2.54678 0.461681 2.83137 0.570832 3.09574C0.679983 3.36011 0.840754 3.59862 1.04319 3.79651L17.5485 20.1722C17.7491 20.3681 17.9088 20.6038 18.0179 20.8651C18.127 21.1264 18.1833 21.4078 18.1833 21.6922C18.1833 21.9766 18.127 22.258 18.0179 22.5193C17.9088 22.7806 17.7491 23.0164 17.5485 23.2122L1.17491 39.4589C0.974421 39.6546 0.814759 39.8901 0.705652 40.1512C0.596545 40.4124 0.540278 40.6936 0.540278 40.9778C0.540278 41.262 0.596545 41.5433 0.705652 41.8044C0.814759 42.0655 0.974421 42.3011 1.17491 42.4967Z" fill="black"/>
</svg>
