<svg width="24" height="24" viewBox="0 0 24 24" fill="none" xmlns="http://www.w3.org/2000/svg">
<path d="M12.0027 5.84671C8.59745 5.84671 5.85076 8.594 5.85076 12C5.85076 15.406 8.59745 18.1533 12.0027 18.1533C15.4079 18.1533 18.1546 15.406 18.1546 12C18.1546 8.594 15.4079 5.84671 12.0027 5.84671ZM12.0027 16.0005C9.80213 16.0005 8.00313 14.2065 8.00313 12C8.00313 9.79361 9.79678 7.99957 12.0027 7.99957C14.2086 7.99957 16.0023 9.79361 16.0023 12C16.0023 14.2065 14.2032 16.0005 12.0027 16.0005ZM19.8412 5.59501C19.8412 6.39296 19.1987 7.03024 18.4062 7.03024C17.6085 7.03024 16.9714 6.3876 16.9714 5.59501C16.9714 4.80242 17.6139 4.15977 18.4062 4.15977C19.1987 4.15977 19.8412 4.80242 19.8412 5.59501ZM23.9157 7.05166C23.8247 5.12909 23.3856 3.42609 21.9775 2.02299C20.5747 0.619882 18.8721 0.180743 16.9499 0.0843469C14.9689 -0.0281156 9.03113 -0.0281156 7.05009 0.0843469C5.13331 0.175387 3.43068 0.614527 2.02253 2.01763C0.61439 3.42074 0.180703 5.12374 0.084328 7.04631C-0.0281093 9.02779 -0.0281093 14.9669 0.084328 16.9483C0.175349 18.871 0.61439 20.5739 2.02253 21.9771C3.43068 23.3801 5.12794 23.8193 7.05009 23.9157C9.03113 24.0281 14.9689 24.0281 16.9499 23.9157C18.8721 23.8246 20.5747 23.3855 21.9775 21.9771C23.3802 20.5739 23.8193 18.871 23.9157 16.9483C24.0281 14.9669 24.0281 9.03314 23.9157 7.05166ZM21.3564 19.0744C20.9388 20.1241 20.1303 20.9327 19.0756 21.3558C17.496 21.9823 13.7482 21.8377 12.0027 21.8377C10.2572 21.8377 6.50397 21.9771 4.92985 21.3558C3.88043 20.9381 3.07196 20.1294 2.64897 19.0744C2.02253 17.4946 2.16709 13.7459 2.16709 12C2.16709 10.2542 2.02789 6.50006 2.64897 4.92559C3.06659 3.87594 3.87507 3.06728 4.92985 2.6442C6.50932 2.01763 10.2572 2.16222 12.0027 2.16222C13.7482 2.16222 17.5014 2.02299 19.0756 2.6442C20.125 3.06192 20.9334 3.87058 21.3564 4.92559C21.9828 6.50542 21.8382 10.2542 21.8382 12C21.8382 13.7459 21.9828 17.5 21.3564 19.0744Z" fill="black"/>
</svg>
