<svg width="48" height="57" fill="none" xmlns="http://www.w3.org/2000/svg"><path d="M47.022 42.406c.089-.243 0-.535-.222-.632a.426.426 0 00-.577.243c-.489 1.215-1.776 1.847-2.886 1.361-.622-.292-1.066-.778-1.2-1.41-.132-.389-.532-.486-.754-.194-.622.778-1.598.972-2.486.632-.267-.097-.578-.292-.755-.584-.134-.194-.622-.194-.755.146-.222.584-.622 1.118-1.199 1.41-.8.34-1.687.195-2.353-.437a.496.496 0 00-.622 0c-.178.194-.4.291-.621.437a2.042 2.042 0 01-1.688 0c-.533-.243-.932-.68-1.154-1.264-.178-.535-.71-.438-.8-.34-.221.243-.488.486-.799.632-.843.389-1.82.146-2.486-.632-.089-.098-.533-.243-.755.146-.222.437-.533 1.118-1.243 1.41-.489.243-1.066.243-1.599.048-.222-.097-.488.049-.577.292a.521.521 0 00.267.632c.71.291 1.51.243 2.22-.049.577-.291 1.065-.778 1.42-1.361.889.68 1.998.875 3.02.389.222-.097.4-.243.577-.389.31.632.844 1.07 1.42 1.361.4.195.8.243 1.2.243.4 0 .843-.097 1.243-.291.178-.098.355-.195.577-.34.888.68 1.954.826 2.975.34a3.112 3.112 0 001.42-1.362c.178.146.4.292.623.39 1.02.437 2.13.242 2.974-.39.311.584.8 1.07 1.466 1.362 1.687.729 3.463-.098 4.13-1.8zM36.144 26.168c.621.291 1.11.826 1.287 1.604.09.39.489.39.622.34a1.942 1.942 0 011.643 0c.577.292 1.021.827 1.287 1.459.09.194.267.34.444.292.267-.049.578 0 .933.146 1.066.486 1.643 1.847 1.243 3.111-.133.389.267.68.489.632.266-.049.577 0 .932.146 1.11.535 1.687 1.944 1.243 3.16a2.789 2.789 0 01-.799 1.118c-.355.292-.133.73 0 .827.4.291.71.729.844 1.215.044.194.222.389.577.292.222-.049.355-.39.266-.632-.133-.486-.4-.924-.755-1.313.311-.34.533-.68.71-1.118.623-1.702-.132-3.695-1.73-4.424-.267-.098-.534-.195-.756-.195.222-1.555-.577-3.063-1.909-3.695-.4-.097-.71-.194-1.066-.194-.355-.778-.888-1.361-1.642-1.702a2.612 2.612 0 00-1.91-.145 3.21 3.21 0 00-1.687-1.8c-.222-.097-.488.05-.577.292 0 .244.089.487.31.584zM20.692 38.662a3.683 3.683 0 00-.71 3.744c.088.194.31.389.577.243.222-.097.355-.39.222-.632-.4-1.07-.045-2.236.799-2.966.31-.291.133-.729 0-.778-.4-.291-.666-.68-.844-1.118a2.645 2.645 0 010-1.847 2.307 2.307 0 011.244-1.313 2.61 2.61 0 011.065-.194c.4 0 .489-.486.4-.632-.4-1.216.177-2.577 1.287-3.063.311-.146.622-.195.933-.146.222.049.4-.097.488-.34a2.296 2.296 0 011.244-1.459c.577-.243 1.11-.194 1.642 0 .4.146.578-.194.622-.292a2.593 2.593 0 011.288-1.653 1.992 1.992 0 012.264.438c.178.146.4.146.577 0 .222-.195.444-.34.71-.486a.521.521 0 00.267-.632c-.089-.243-.355-.39-.577-.292-.222.097-.444.243-.666.389-.888-.68-1.998-.826-2.93-.34a3.29 3.29 0 00-1.643 1.799 3.224 3.224 0 00-1.91.145 3.108 3.108 0 00-1.643 1.702c-.355 0-.71.097-1.02.243-1.377.583-2.132 2.188-1.91 3.695-.267.048-.488.097-.755.243-.8.34-1.376.972-1.732 1.799-.31.826-.31 1.75 0 2.577.178.437.4.826.71 1.166zm11.056 9.772c.266 0 .444-.194.444-.486v-2.042c0-.291-.178-.486-.444-.486-.267 0-.444.194-.444.486v2.042c0 .243.178.486.444.486zm15.096 5.786h-1.776c-.266 0-.444.194-.444.486 0 .291.178.486.444.486h1.776c.267 0 .444-.194.444-.486s-.177-.486-.444-.486zm-3.552 0h-6.038c-.977-1.167-1.51-2.626-1.51-4.23v-4.132c0-.292-.178-.487-.444-.487s-.444.195-.444.487v4.132c0 1.556.444 3.014 1.243 4.23h-5.15a7.67 7.67 0 001.243-4.23c0-.292-.178-.486-.444-.486-.267 0-.444.194-.444.486 0 1.604-.533 3.063-1.51 4.23h-1.598c-.267 0-.444.194-.444.486 0 .291.177.486.444.486h15.096c.267 0 .444-.194.444-.486s-.177-.486-.444-.486zm-16.872 0h-6.217c-.266 0-.444.194-.444.486 0 .291.178.486.444.486h6.217c.266 0 .444-.194.444-.486s-.178-.486-.444-.486z" fill="#000"/><path d="M26.823 30.543c0 .288.179.48.448.48.268 0 .447-.192.447-.48 0-.287.18-.479.448-.479.269 0 .448-.192.448-.48 0-.287-.18-.478-.448-.478-.761 0-1.343.623-1.343 1.437zm18.803 5.75c0-.815-.582-1.438-1.343-1.438-.27 0-.448.192-.448.48 0 .287.179.479.447.479.27 0 .448.191.448.479 0 .287.18.479.448.479.269 0 .448-.192.448-.48zm-23.28 4.791c0-.287-.179-.479-.448-.479-.268 0-.447.192-.447.48 0 .814.582 1.437 1.343 1.437.268 0 .447-.192.447-.48 0-.287-.178-.479-.447-.479s-.448-.191-.448-.479zm12.983 1.438c.761 0 1.343-.623 1.343-1.438 0-.287-.18-.479-.448-.479s-.447.192-.447.48c0 .287-.18.478-.448.478-.269 0-.448.192-.448.48 0 .287.18.479.448.479z" fill="#000"/><path transform="matrix(-.42892 .90334 -.86923 -.4944 22.472 7.864)" stroke="#000" stroke-width="2.784" d="M0 -1.392L52.392 -1.392"/><path d="M18.93.84l-3.323 11.31 10.484 3.081 3.323-11.31L18.931.841zm2.385 7.909l8.814 17.715 2.392-1.425-8.815-17.716-2.391 1.425z" fill="#000"/><path transform="matrix(.63895 .76925 -.70888 .70533 17.024 19.416)" stroke="#000" stroke-width="2.784" d="M0 -1.392L5.329 -1.392"/><path transform="matrix(-.70888 .70533 -.63895 -.76925 24.175 19.79)" stroke="#000" stroke-width="2.784" d="M0 -1.392L5.284 -1.392"/><path transform="matrix(.64208 .76664 -.70595 .70826 24.175 19.79)" stroke="#000" stroke-width="2.784" d="M0 -1.392L5.833 -1.392"/><path transform="matrix(-.72908 .68443 -.61683 -.7871 29.234 22.025)" stroke="#000" stroke-width="2.784" d="M0 -1.392L2.27 -1.392"/><path transform="matrix(.41553 .90958 -.87723 .48006 38.135 42.894)" stroke="#000" stroke-width="2.784" d="M0 -1.392L13.111 -1.392"/></svg>
