<svg width="30" height="26" viewBox="0 0 30 26" fill="none" xmlns="http://www.w3.org/2000/svg">
<path d="M26.2272 6.45478C26.2458 6.73805 26.2458 7.02138 26.2458 7.30464C26.2458 15.9447 20.2177 25.9001 9.19995 25.9001C5.80561 25.9001 2.65241 24.8276 0 22.9661C0.482272 23.0268 0.945933 23.0471 1.44676 23.0471C4.24751 23.0471 6.82576 22.0152 8.88463 20.2547C6.25077 20.194 4.04352 18.3122 3.28302 15.7221C3.65401 15.7828 4.02495 15.8233 4.4145 15.8233C4.95238 15.8233 5.49033 15.7423 5.9911 15.6008C3.24597 14.9937 1.18704 12.3633 1.18704 9.18645V9.10553C1.98459 9.59117 2.91208 9.89468 3.89506 9.93509C2.28137 8.76147 1.22415 6.75829 1.22415 4.49201C1.22415 3.27796 1.52087 2.16507 2.04025 1.1938C4.98945 5.15976 9.4225 7.74972 14.3934 8.03306C14.3007 7.54742 14.245 7.04162 14.245 6.53575C14.245 2.93397 16.916 0 20.2361 0C21.9611 0 23.5192 0.789143 24.6135 2.06391C25.9675 1.78065 27.2659 1.23429 28.4158 0.485631C27.9706 2.00325 27.0247 3.27802 25.782 4.08735C26.9877 3.94578 28.1563 3.58148 29.232 3.07566C28.416 4.37062 27.3958 5.52394 26.2272 6.45478Z" fill="black"/>
</svg>
