<svg width="24" height="44" viewBox="0 0 24 44" fill="none" xmlns="http://www.w3.org/2000/svg">
<path fill-rule="evenodd" clip-rule="evenodd" d="M23.2003 42.4967C22.3167 43.3352 20.8876 43.3352 20.0062 42.4967L1.32363 24.73C0.905432 24.3384 0.572433 23.867 0.344886 23.3446C0.117339 22.8222 -1.85638e-06 22.2596 -1.85638e-06 21.6911C-1.85638e-06 21.1226 0.117339 20.5601 0.344886 20.0377C0.572433 19.5152 0.905432 19.0439 1.32363 18.6523L20.1415 0.754412C20.5686 0.354419 21.1341 0.129596 21.7233 0.125603C22.3125 0.12161 22.8812 0.338746 23.3138 0.732913C23.5281 0.927564 23.6996 1.1635 23.8176 1.4261C23.9356 1.6887 23.9977 1.97239 23.9999 2.25958C24.0022 2.54678 23.9446 2.83137 23.8307 3.09574C23.7168 3.36011 23.549 3.59862 23.3378 3.79651L6.11482 20.1722C5.90555 20.3681 5.7389 20.6038 5.62503 20.8651C5.51115 21.1264 5.45243 21.4078 5.45243 21.6922C5.45243 21.9766 5.51115 22.258 5.62503 22.5193C5.7389 22.7806 5.90555 23.0164 6.11482 23.2122L23.2003 39.4589C23.4095 39.6546 23.5762 39.8901 23.69 40.1512C23.8039 40.4124 23.8626 40.6936 23.8626 40.9778C23.8626 41.262 23.8039 41.5433 23.69 41.8044C23.5762 42.0655 23.4095 42.3011 23.2003 42.4967Z" fill="black"/>
</svg>
