<svg width="24" height="24" viewBox="0 0 24 24" fill="none" xmlns="http://www.w3.org/2000/svg">
<g clip-path="url(#clip0_155_1048)">
<path d="M23.4985 6.50346C23.2225 5.51804 22.4092 4.74196 21.3767 4.47858C19.505 4 12 4 12 4C12 4 4.49503 4 2.62335 4.47858C1.59077 4.742 0.777524 5.51804 0.501503 6.50346C0 8.28958 0 12.0162 0 12.0162C0 12.0162 0 15.7428 0.501503 17.5289C0.777524 18.5143 1.59077 19.258 2.62335 19.5214C4.49503 20 12 20 12 20C12 20 19.505 20 21.3767 19.5214C22.4092 19.258 23.2225 18.5143 23.4985 17.5289C24 15.7428 24 12.0162 24 12.0162C24 12.0162 24 8.28958 23.4985 6.50346ZM9.54543 15.3996V8.63271L15.8182 12.0162L9.54543 15.3996Z" fill="black"/>
</g>
<defs>
<clipPath id="clip0_155_1048">
<rect width="24" height="24" fill="white"/>
</clipPath>
</defs>
</svg>
